<svg width="32" height="32" viewBox="0 0 32 32" fill="none" xmlns="http://www.w3.org/2000/svg">
<path fill-rule="evenodd" clip-rule="evenodd" d="M25.464 10.8215L12.7721 23.5134C12.6183 23.6681 12.4354 23.7908 12.2338 23.8743C12.0323 23.9578 11.8163 24.0005 11.5981 24C11.3814 24.0015 11.1667 23.9591 10.9667 23.8755C10.7668 23.7919 10.5858 23.6688 10.4347 23.5134L5.2839 18.4684C4.97394 18.1584 4.7998 17.738 4.7998 17.2997C4.7998 16.8613 4.97394 16.4409 5.2839 16.131C5.59386 15.821 6.01426 15.6469 6.45262 15.6469C6.89097 15.6469 7.31137 15.821 7.62133 16.131L11.5452 20.0655L23.1266 8.4841C23.4366 8.17413 23.857 8 24.2953 8C24.7337 8 25.1541 8.17413 25.464 8.4841C25.774 8.79406 25.9481 9.21446 25.9481 9.65281C25.9481 10.0912 25.774 10.5116 25.464 10.8215Z" fill="white"/>
</svg>
