<svg width="72" height="58" viewBox="0 0 72 58" fill="none" xmlns="http://www.w3.org/2000/svg">
<path d="M8 4.14286C5.7875 4.14286 4 5.9942 4 8.28571V12.4286H68V8.28571C68 5.9942 66.2125 4.14286 64 4.14286H8ZM4 16.5714V24.8571H68V16.5714H4ZM4 29V49.7143C4 52.0058 5.7875 53.8571 8 53.8571H64C66.2125 53.8571 68 52.0058 68 49.7143V29H4ZM0 8.28571C0 3.71563 3.5875 0 8 0H64C68.4125 0 72 3.71563 72 8.28571V49.7143C72 54.2844 68.4125 58 64 58H8C3.5875 58 0 54.2844 0 49.7143V8.28571ZM12 43.5C12 42.3607 12.9 41.4286 14 41.4286H22C23.1 41.4286 24 42.3607 24 43.5C24 44.6393 23.1 45.5714 22 45.5714H14C12.9 45.5714 12 44.6393 12 43.5ZM28 43.5C28 42.3607 28.9 41.4286 30 41.4286H46C47.1 41.4286 48 42.3607 48 43.5C48 44.6393 47.1 45.5714 46 45.5714H30C28.9 45.5714 28 44.6393 28 43.5Z" fill="white"/>
</svg>
