<svg width="70" height="70" viewBox="0 0 70 70" fill="none" xmlns="http://www.w3.org/2000/svg">
<path d="M2.0803 37.1872C0.877243 37.1189 -0.0523903 36.0936 0.00229398 34.8905L0.0569783 33.7969C0.699519 20.9873 11.2673 10.9393 24.0907 10.9393H53.4015L45.5543 3.80313C44.6657 2.99655 44.5973 1.60213 45.4039 0.713526C46.2105 -0.175076 47.605 -0.24343 48.4936 0.563147L60.5241 11.4998C60.9753 11.9099 61.235 12.4978 61.235 13.1129C61.235 13.7281 60.9753 14.316 60.5241 14.7261L48.4936 25.6628C47.605 26.4693 46.2105 26.4146 45.4039 25.5124C44.5973 24.6101 44.652 23.2293 45.5543 22.4228L53.4015 15.3139H24.0907C13.605 15.3139 4.95122 23.5438 4.43172 34.0156L4.37704 35.1093C4.32235 36.3123 3.28335 37.2419 2.0803 37.1872ZM67.9202 32.8126C69.1232 32.8673 70.0529 33.9062 69.9982 35.1093L69.9435 36.2029C69.301 49.0125 58.7332 59.0605 45.9098 59.0605H16.599L24.4462 66.1967C25.3348 67.0033 25.4031 68.3977 24.5966 69.2863C23.79 70.1749 22.3955 70.2433 21.5069 69.4367L9.47635 58.5C9.0252 58.0899 8.76545 57.5021 8.76545 56.8869C8.76545 56.2717 9.0252 55.6838 9.47635 55.2737L21.5069 44.3371C22.3955 43.5305 23.79 43.5852 24.5966 44.4875C25.4031 45.3897 25.3485 46.7705 24.4462 47.5771L16.599 54.6859H45.9098C56.3955 54.6859 65.0492 46.456 65.5687 35.9842L65.6234 34.8905C65.6781 33.6875 66.7171 32.7579 67.9202 32.8126Z" fill="white"/>
</svg>
