<svg width="82" height="20" viewBox="0 0 82 20" fill="none" xmlns="http://www.w3.org/2000/svg">
<path d="M11.2065 15.8846V19.6387H0.000328333V0.308097H4.5108V15.8846H11.2065ZM31.9971 10.0014C31.9971 16.2488 27.4867 19.9749 21.7435 19.9749C16.0004 19.9749 11.4899 16.2488 11.4899 10.0014C11.4899 3.75399 16.0004 -7.13262e-05 21.7435 -7.13262e-05C27.4867 -7.13262e-05 31.9971 3.75399 31.9971 10.0014ZM27.4026 9.88935C27.4026 6.21934 24.9653 3.86605 21.7435 3.86605C18.5218 3.86605 16.0844 6.19132 16.0844 9.88935C16.0844 13.5874 18.5218 15.9407 21.7435 15.9407C24.9653 15.9407 27.4026 13.5874 27.4026 9.88935ZM52.5768 8.62866V16.641C51.5963 17.5095 49.299 19.9469 43.9761 19.9469C38.6252 19.9469 33.9186 16.4169 33.9186 9.97339C33.9186 3.52986 38.6252 0.0279437 44.0321 0.0279437C49.1589 0.0279437 51.3722 2.71742 51.9885 3.38979L48.9909 5.99521C48.1784 5.09872 46.6656 3.782 44.0321 3.782C40.9224 3.782 38.5131 6.05124 38.5131 9.97339C38.5131 13.8955 40.9785 16.1648 44.1162 16.1648C47.2539 16.1648 48.1504 14.9321 48.1504 14.9321V12.0745H44.0882V8.62866H52.5768ZM60.6352 0.308097V19.6387H56.0967V0.308097H60.6352ZM81.9993 0.308097V19.6387H77.3487L68.8601 6.5275C68.8601 6.5275 68.9441 8.85278 68.9441 10.8979V19.6387H64.5177V0.308097H69.3644L77.6569 13.3072C77.6569 13.3072 77.5729 11.122 77.5729 9.0769V0.308097H81.9993Z" fill="white"/>
</svg>
