<svg width="83" height="36" viewBox="0 0 83 36" fill="none" xmlns="http://www.w3.org/2000/svg">
<path d="M12.2653 35.9592H0V0H12.2653V3.77489H3.77489V32.1843H12.2653V35.9592Z" fill="#C60C30"/>
<path d="M82.6323 35.9592H70.373V32.1843H78.8635V3.77489H70.373V0H82.6323V35.9592Z" fill="#C60C30"/>
<path d="M30.5416 17.714C30.5416 15.5211 29.9307 14.8309 29.5093 14.3605C28.6431 13.5136 27.4771 13.0437 26.2658 13.0534C25.43 13.0559 24.6075 13.2625 23.8698 13.6554C23.132 14.0482 22.5014 14.6153 22.0328 15.3073V13.4382H17.0179V14.0979H19.0581V25.7035H15.6741V13.4382H10.5921V14.0979H12.7238V25.7035H10.5615V26.3571H24.1401V25.6913H22.0389V20.1939C22.0694 17.8056 22.1 15.9181 23.5721 14.6965C24.1409 14.2315 24.8473 13.9674 25.5817 13.9452C26.0087 13.9281 26.4278 14.0639 26.7636 14.3281C27.0995 14.5924 27.3302 14.9677 27.4141 15.3867C27.51 15.9927 27.5529 16.6058 27.5424 17.2192V25.6913H25.5817V26.3449H32.6061V25.6913H30.5416V17.714Z" fill="#333333"/>
<path d="M51.2599 25.8134C50.5391 25.8134 50.5391 25.0621 50.5391 23.9809V17.439C50.5391 16.2479 50.5391 15.2156 49.6656 14.3055C48.5988 13.4521 47.2622 13.008 45.8969 13.0533C42.7328 13.0533 40.6926 14.843 40.6926 16.3762C40.6756 16.7504 40.808 17.1161 41.0606 17.3927C41.3132 17.6693 41.6653 17.8343 42.0395 17.8513C42.4137 17.8683 42.7794 17.736 43.056 17.4834C43.3327 17.2308 43.4976 16.8787 43.5146 16.5045C43.5146 15.7776 42.8611 15.3744 42.8611 14.9957C42.8611 14.617 44.0155 13.6824 45.4265 13.6824C47.4972 13.6824 47.5583 15.1545 47.6255 16.0647V19.1982C46.183 19.186 44.7453 19.3646 43.3497 19.7296C41.2485 20.3893 39.8069 21.7392 39.8069 23.6511C39.8065 23.7985 39.8188 23.9456 39.8436 24.0909C39.8077 24.5467 39.5969 24.9709 39.2554 25.2749C38.9138 25.5788 38.468 25.739 38.0111 25.7218C36.4413 25.7218 36.4719 24.4024 36.4719 23.4312V14.0856H39.8253V13.4381H36.4596V8.22168H35.9893C35.7377 9.36421 35.1852 10.4187 34.3889 11.2758C33.6329 12.282 32.6434 13.0891 31.5059 13.6275V14.0673H33.546V21.9897C33.546 23.59 33.546 24.2802 33.7964 24.8727C34.2668 26.131 35.519 26.7052 37.0582 26.7052C38.8907 26.7052 39.7642 25.8806 40.1734 25.0926C40.5088 25.6278 40.983 26.0621 41.5455 26.3493C42.108 26.6365 42.7379 26.7658 43.368 26.7235C44.2449 26.7416 45.1083 26.5055 45.854 26.0438C46.5997 25.5821 47.1958 24.9144 47.5705 24.1214C47.5698 24.4991 47.6477 24.8727 47.7991 25.2187C47.9505 25.5646 48.1722 25.8753 48.4501 26.131C48.9758 26.5332 49.6207 26.7482 50.2826 26.7419C50.725 26.7441 51.163 26.6534 51.5681 26.4756C51.9732 26.2977 52.3364 26.0368 52.6342 25.7096L52.2555 25.2698C52.0173 25.4408 51.6691 25.8134 51.2599 25.8134ZM47.6438 20.8902C47.5766 22.4905 47.5155 23.59 46.5138 24.5551C46.0395 25.0052 45.4144 25.2622 44.7607 25.2759C43.7345 25.282 42.7572 24.6223 42.7572 23.0891C42.7572 20.5176 45.17 19.7907 47.6438 19.7663V20.8902Z" fill="#333333"/>
<path d="M58.9446 26.0333C58.3238 26.0768 57.7066 25.9084 57.194 25.5555C56.6813 25.2027 56.3036 24.6863 56.1226 24.0909C55.8508 23.0699 55.7436 22.0121 55.805 20.9574C55.805 19.5403 55.8416 16.6816 56.3425 15.46C56.5622 14.9034 56.9553 14.4324 57.4635 14.1166C57.9718 13.8009 58.5682 13.6572 59.1645 13.7069C60.8565 13.7069 61.6444 14.4887 61.6444 14.7697C61.6444 14.8919 61.5772 14.9591 61.4856 15.0812C61.0945 15.4738 60.8749 16.0053 60.8748 16.5594C60.8616 16.7658 60.8894 16.9728 60.9568 17.1684C61.0241 17.364 61.1296 17.5442 61.267 17.6987C61.4045 17.8533 61.5713 17.979 61.7577 18.0686C61.9441 18.1582 62.1464 18.21 62.353 18.2209C62.5745 18.214 62.7923 18.1625 62.9935 18.0696C63.1946 17.9767 63.375 17.8441 63.5238 17.6799C63.6726 17.5157 63.7868 17.3232 63.8595 17.1139C63.9323 16.9046 63.9621 16.6828 63.9472 16.4617C63.9472 14.8919 62.1636 13.0777 59.2439 13.0777C58.3358 13.0727 57.4358 13.2492 56.5968 13.5968C55.7579 13.9445 54.9968 14.4562 54.3584 15.1021C53.7199 15.7479 53.217 16.5148 52.879 17.3577C52.5411 18.2006 52.375 19.1026 52.3905 20.0106C52.3652 20.8778 52.5131 21.7412 52.8253 22.5506C53.1376 23.36 53.608 24.099 54.2091 24.7246C54.8102 25.3501 55.5299 25.8496 56.3262 26.1939C57.1225 26.5381 57.9794 26.7203 58.8469 26.7297C62.2369 26.7297 63.8984 24.378 64.3443 22.1546H63.5624C63.3561 23.2335 62.7841 24.2083 61.943 24.9148C61.1019 25.6213 60.0429 26.0164 58.9446 26.0333Z" fill="#333333"/>
<path d="M72.3949 23.9321C72.3894 24.1733 72.3362 24.411 72.2386 24.6316C72.141 24.8522 72.0007 25.0514 71.8259 25.2177C71.6511 25.3839 71.4452 25.5141 71.22 25.6006C70.9948 25.6871 70.7547 25.7283 70.5136 25.7218C68.9437 25.7218 68.9804 24.4024 68.9804 23.4312V14.0856H72.3338V13.4381H68.9804V8.22168H68.5101C68.2514 9.36159 67.6997 10.4143 66.9097 11.2758C66.1514 12.2822 65.1599 13.0893 64.0205 13.6275V14.0673H66.0607V21.9897C66.0607 23.59 66.0607 24.2802 66.3111 24.8727C66.7814 26.131 68.0397 26.7052 69.5729 26.7052C72.4926 26.7052 72.9324 24.6712 73.0851 23.9138L72.3949 23.9321Z" fill="#333333"/>
<path d="M13.9575 10.7079C14.3793 10.7067 14.7913 10.5807 15.1417 10.3459C15.4921 10.111 15.7651 9.77778 15.9265 9.3881C16.0879 8.99841 16.1304 8.56969 16.0487 8.15589C15.967 7.74209 15.7648 7.3617 15.4674 7.0626C15.17 6.76351 14.7907 6.55907 14.3774 6.47501C13.9641 6.39096 13.5351 6.43104 13.1445 6.59023C12.7539 6.74941 12.4191 7.02058 12.1823 7.3696C11.9455 7.71863 11.8172 8.12991 11.8136 8.55168C11.8111 8.83449 11.8648 9.11496 11.9716 9.37686C12.0783 9.63876 12.2359 9.87688 12.4354 10.0774C12.6348 10.278 12.872 10.437 13.1333 10.5452C13.3946 10.6534 13.6747 10.7087 13.9575 10.7079Z" fill="#333333"/>
<path d="M20.499 35.9409V32.166H21.4397V35.9409H20.499Z" fill="#C60C30"/>
<path d="M25.9908 35.9409L24.5432 33.4976V35.9409H23.6514V32.166H24.6348L26.0153 34.4688V32.166H26.8765V35.9409H25.9908Z" fill="#C60C30"/>
<path d="M31.3902 33.235C31.1105 33.0025 30.7638 32.8655 30.4007 32.8441C30.0586 32.8441 29.8876 32.9418 29.8876 33.1495C29.8876 33.3572 30.1197 33.4427 30.2296 33.4855C30.3396 33.5282 30.8038 33.6809 30.9199 33.7176C31.0941 33.7834 31.257 33.8761 31.4024 33.9925C31.5193 34.0857 31.6127 34.2049 31.6753 34.3407C31.7378 34.4764 31.7678 34.6249 31.7628 34.7743C31.7673 34.9447 31.7315 35.1138 31.6583 35.2677C31.585 35.4216 31.4764 35.5561 31.3413 35.66C31.0312 35.9039 30.6415 36.0237 30.248 35.996C29.7134 35.9996 29.1953 35.811 28.7881 35.4646L29.2157 34.7804C29.5094 35.0315 29.875 35.1833 30.2602 35.2141C30.6389 35.2141 30.8221 35.0919 30.8221 34.8782C30.8221 34.6644 30.5778 34.5789 30.4434 34.53L29.8326 34.3162C29.6467 34.2511 29.4717 34.1584 29.3134 34.0413C29.1955 33.9453 29.1019 33.8228 29.0403 33.6837C28.9788 33.5446 28.9509 33.393 28.9591 33.2411C28.9595 33.0709 29.0008 32.9033 29.0794 32.7524C29.1581 32.6014 29.2718 32.4716 29.4111 32.3738C29.7048 32.178 30.0545 32.0837 30.4068 32.105C30.8984 32.1082 31.3744 32.2783 31.7567 32.5876L31.3902 33.235Z" fill="#C60C30"/>
<path d="M35.9163 32.166H36.8569V34.4383C36.8771 34.6441 36.8555 34.8518 36.7936 35.0491C36.7317 35.2464 36.6307 35.4292 36.4965 35.5866C36.1451 35.8532 35.716 35.9974 35.2749 35.9974C34.8338 35.9974 34.4047 35.8532 34.0533 35.5866C33.9191 35.4292 33.8181 35.2464 33.7562 35.0491C33.6943 34.8518 33.6727 34.6441 33.6929 34.4383V32.166H34.6335V34.481C34.622 34.572 34.629 34.6644 34.6542 34.7526C34.6794 34.8408 34.7223 34.923 34.7801 34.9941C34.9156 35.1155 35.0932 35.1791 35.2749 35.1713C35.4564 35.1778 35.6336 35.1144 35.7697 34.9941C35.8288 34.9237 35.8725 34.8416 35.8977 34.7532C35.923 34.6648 35.9293 34.5721 35.9163 34.481V32.166Z" fill="#C60C30"/>
<path d="M41.1032 35.9412L40.3152 34.5546H39.9365V35.9412H39.002V32.1663H40.4924C40.8462 32.1429 41.1985 32.2305 41.5002 32.4168C41.6428 32.5195 41.758 32.6557 41.8357 32.8133C41.9134 32.9709 41.9513 33.1451 41.9461 33.3208C41.9556 33.5524 41.8915 33.7811 41.7632 33.9742C41.6348 34.1673 41.4487 34.3149 41.2315 34.3958L42.1477 35.9412H41.1032ZM40.8222 32.9848C40.7036 32.911 40.5645 32.8768 40.4252 32.8871H39.9426V33.8644H40.4252C40.5642 33.8716 40.7023 33.8376 40.8222 33.7667C40.8797 33.7181 40.9254 33.6571 40.9561 33.5884C40.9868 33.5196 41.0016 33.4449 40.9993 33.3696C41.0002 33.2964 40.9847 33.2239 40.954 33.1573C40.9234 33.0908 40.8784 33.0318 40.8222 32.9848Z" fill="#C60C30"/>
<path d="M46.276 35.9409L46.0561 35.2262H44.7245L44.5046 35.9409H43.5762L44.8589 32.166H45.995L47.2778 35.9409H46.276ZM45.3903 33.0517L44.9383 34.4933H45.8423L45.3903 33.0517Z" fill="#C60C30"/>
<path d="M51.388 35.9409L49.9404 33.4976V35.9409H49.0547V32.166H50.032L51.4125 34.4688V32.166H52.2982V35.9409H51.388Z" fill="#C60C30"/>
<path d="M57.5944 35.3546C57.4217 35.5642 57.2011 35.729 56.9512 35.8354C56.7014 35.9417 56.4296 35.9863 56.1589 35.9655C55.9064 35.9725 55.6551 35.926 55.4218 35.829C55.1885 35.7319 54.9784 35.5866 54.8053 35.4025C54.6322 35.2185 54.5 34.9998 54.4175 34.761C54.335 34.5222 54.3039 34.2686 54.3265 34.0169C54.3155 33.7666 54.3561 33.5166 54.4456 33.2826C54.5351 33.0485 54.6717 32.8353 54.8469 32.6561C55.0221 32.4769 55.2321 32.3356 55.4641 32.2408C55.6961 32.146 55.945 32.0998 56.1956 32.1051C56.4613 32.0892 56.727 32.1362 56.9711 32.2424C57.2152 32.3485 57.4309 32.5107 57.6005 32.7159L57.1362 33.3267C57.0348 33.1883 56.9025 33.0753 56.7498 32.9969C56.5971 32.9184 56.4283 32.8766 56.2567 32.8747C55.9886 32.9144 55.7438 33.0492 55.5667 33.2544C55.3897 33.4596 55.2923 33.7215 55.2923 33.9925C55.2923 34.2635 55.3897 34.5255 55.5667 34.7306C55.7438 34.9358 55.9886 35.0706 56.2567 35.1103C56.4308 35.108 56.6021 35.0661 56.7577 34.9878C56.9133 34.9095 57.049 34.7968 57.1546 34.6583L57.5944 35.3546Z" fill="#C60C30"/>
<path d="M59.5361 35.9409V32.166H62.0772V32.8929H60.4707V33.5953H61.9611V34.3405H60.4707V35.1835H62.1321V35.9409H59.5361Z" fill="#C60C30"/>
</svg>