<svg width="84" height="83" viewBox="0 0 84 83" fill="none" xmlns="http://www.w3.org/2000/svg">
<path fill-rule="evenodd" clip-rule="evenodd" d="M3.09464 12.1668V39.0976L12.0326 63.6417H13.9433V74.4278H12.431L11.541 82.5112H19.8246L18.9576 74.4278H17.6183V63.6417H19.4371L28.3131 39.0954V12.1668H31.5615V0H0V12.1668H3.09464ZM17.6183 51.5942V57.8446L24.6381 38.4313V33.2191H6.76964V38.4291L13.9433 58.1283V51.5942H17.6183ZM24.6381 12.6064V24.1773H6.76964V12.6064H24.6381ZM24.9478 27.8128H6.42152V29.2294H24.9478V27.8128ZM47.148 17.4564H67.922V24.1565H84V60.761H31.0386V24.1565H47.148V17.4564ZM64.247 21.1898V24.1565H50.823V21.1898H64.247ZM32.5562 34.8408L38.1958 34.8407V36.9691H41.2925V34.8407L74.6997 34.8407V36.9691H77.7759V34.8407L82.9233 34.8407V33.3474L77.7759 33.3474V31.219H74.6997V33.3474L41.2925 33.3474V31.219H38.1958V33.3474L32.5562 33.3474V34.8408ZM59.4491 45.2926V39.9275H55.7741V45.2926H50.4877V49.026H55.7741V54.399H59.4491V49.026H64.7329V45.2926H59.4491Z" fill="#007B87"/>
</svg>
