<svg width="72" height="64" viewBox="0 0 72 64" fill="none" xmlns="http://www.w3.org/2000/svg">
<path d="M64 4H8C5.7875 4 4 5.7875 4 8V32H68V8C68 5.7875 66.2125 4 64 4ZM72 32V36V44C72 48.4125 68.4125 52 64 52H45.3625L46.7 60H54C55.1 60 56 60.9 56 62C56 63.1 55.1 64 54 64H45H27H18C16.9 64 16 63.1 16 62C16 60.9 16.9 60 18 60H25.3L26.6375 52H8C3.5875 52 0 48.4125 0 44V36V32V8C0 3.5875 3.5875 0 8 0H64C68.4125 0 72 3.5875 72 8V32ZM4 36V44C4 46.2125 5.7875 48 8 48H28.9625C28.9875 48 29.0125 48 29.0375 48H42.9625C42.9875 48 43.0125 48 43.0375 48H64C66.2125 48 68 46.2125 68 44V36H4ZM29.3625 60H42.6375L41.3 52H30.7L29.3625 60Z" fill="white"/>
</svg>
