<svg width="158" height="158" viewBox="0 0 158 158" fill="none" xmlns="http://www.w3.org/2000/svg">
<path fill-rule="evenodd" clip-rule="evenodd" d="M75.5867 44.7576C74.3551 44.7576 73.35 43.7525 73.35 42.5209C73.35 41.2892 74.3551 40.2852 75.5867 40.2852C76.8183 40.2852 77.8234 41.2892 77.8234 42.5209C77.8234 43.7525 76.8183 44.7576 75.5867 44.7576ZM65.0142 110.41H86.1602V106.469H65.0142V110.41ZM144.834 60.7399V120.194H110.723V60.7399H144.834ZM127.799 111.159C126.104 111.159 124.744 112.529 124.744 114.213C124.744 114.262 124.744 114.312 124.754 114.361C124.754 114.459 124.764 114.558 124.784 114.656C124.793 114.755 124.813 114.854 124.843 114.952C124.862 115.031 124.881 115.11 124.912 115.189C124.931 115.267 124.951 115.336 124.99 115.395C125.02 115.494 125.069 115.583 125.119 115.671C125.206 115.839 125.316 116.006 125.444 116.154C125.503 116.233 125.562 116.302 125.641 116.371C125.976 116.717 126.409 116.982 126.892 117.131C127.04 117.178 127.177 117.209 127.335 117.228C127.483 117.258 127.641 117.268 127.799 117.268C127.956 117.268 128.114 117.258 128.262 117.228C128.419 117.209 128.557 117.178 128.705 117.131C129.64 116.844 130.379 116.114 130.686 115.189C130.714 115.11 130.735 115.031 130.755 114.952C130.784 114.854 130.804 114.755 130.814 114.656C130.833 114.558 130.843 114.459 130.843 114.361C130.853 114.312 130.853 114.262 130.853 114.213C130.853 112.529 129.482 111.159 127.799 111.159ZM129.03 37.7224V56.7991H124.813V47.2317H24.4684V99.9954H106.782V114.361H13.1668V106.351H20.2513V37.7224H129.03ZM142.066 69.8738H113.492V108.173H142.066V69.8738Z" fill="#757575"/>
</svg>
