<svg width="100" height="87" viewBox="0 0 100 87" fill="none" xmlns="http://www.w3.org/2000/svg">
<path fill-rule="evenodd" clip-rule="evenodd" d="M35.2775 35.2646L70.1447 40.2174L71.6154 43.0667L75.316 50.2778L82.8179 51.3471C83.6623 51.4667 84.4638 52.2688 84.5771 53.1411L84.6616 53.8587C84.8023 54.9351 84.1683 55.9834 83.1409 56.3422L79.8132 57.5452L81.2628 59.8668C82.0009 61.1191 82.3113 62.6246 82.1705 64.3975C82.1487 64.693 82.1072 64.9955 82.0572 65.3121C80.9954 72.7835 79.4403 83.1464 79.1166 85.4117C78.997 86.256 78.1807 86.861 77.3074 86.7414L68.477 85.4821C67.6107 85.3625 66.9915 84.5534 67.1189 83.7092L67.8648 78.4257L26.8122 72.5935L26.0586 77.877C25.9389 78.7142 25.1227 79.3263 24.2649 79.1996L15.4408 77.9473C14.5612 77.8207 13.9419 77.0117 14.0616 76.1674C14.3564 74.1061 15.7356 63.7362 16.8341 56.0467C17.1148 53.8587 17.8818 52.1914 19.121 51.0376L21.161 49.2155L18.297 47.133C17.4104 46.4999 17.0937 45.3179 17.523 44.3189L17.8185 43.6576C18.157 42.8486 19.1492 42.2998 20.0006 42.4194L27.5011 43.4888L33.4901 37.15L35.2775 35.2646ZM90.6032 54.8222L93.976 55.192L91.706 72.3101L88.3333 71.9403L90.6032 54.8222ZM73.7341 65.9382H73.4442L69.9406 66.0859C69.0962 66.1282 68.3292 66.5503 67.8296 67.2045C67.5622 67.5704 67.3785 67.9925 67.3082 68.4709C67.2026 69.2237 67.4214 69.9483 67.8507 70.5181C68.2792 71.081 68.9132 71.489 69.6655 71.5945L73.1423 72.094C74.8312 72.3332 76.3997 71.1654 76.6467 69.4699C76.6952 69.1111 76.6818 68.7664 76.6256 68.4357C76.3786 67.1623 75.3442 66.1493 74.0283 65.9593C73.832 65.9312 73.6349 65.9382 73.4442 65.9382H73.7341ZM96.0569 58.5885L99.9994 58.9584L98.2992 69.9242L94.3567 69.5543L96.0569 58.5885ZM24.3838 58.91C22.7379 58.6778 21.1328 59.8246 20.8943 61.5482C20.648 63.2437 21.8302 64.7985 23.5113 65.0377L26.9811 65.5372C27.7551 65.6427 28.4729 65.4246 29.0429 65.0025C29.6121 64.5734 30.0203 63.9402 30.1265 63.1874C30.3158 61.8578 29.5284 60.5914 28.2611 60.1693L24.9404 59.0507C24.7504 58.9944 24.5668 58.9382 24.3838 58.91ZM8.41563 42.578L11.4428 43.197L7.98705 60.0893L4.95987 59.4703L8.41563 42.578ZM2.38347 44.4811L5.6427 45.1001L3.25923 55.9217L0 55.3027L2.38347 44.4811ZM36.1423 38.2475L35.193 39.3028L26.777 48.716L74.6623 55.519L74.2119 54.6256L68.4903 43.1722L68.3144 42.8134L36.1423 38.2475ZM79.6186 3.57087C76.7905 3.6764 73.9758 3.98595 71.2096 4.49249C68.4512 5.00606 65.7139 5.71662 63.2299 6.8704C62.0062 7.45432 60.8304 8.14377 59.8804 9.01614C58.9382 9.86741 58.2064 10.9157 57.939 12.0272C57.6997 13.0966 58.0368 13.9619 58.7834 14.8976C59.5286 15.8192 60.5559 16.6986 61.6262 17.5921C63.7788 19.365 66.1157 21.2715 68.086 23.6776C70.0774 26.0625 71.6607 28.9751 72.5333 32.0847C73.0744 33.9771 73.3699 35.9048 73.4832 37.8395L70.5489 37.4244L67.0023 36.9179C67.0516 35.7148 67.0023 34.5259 66.8398 33.344C66.5161 30.9239 65.6646 28.5882 64.3206 26.4072C62.9843 24.2052 61.1688 22.2142 59.219 20.0966C58.2556 19.0273 57.2353 17.9227 56.3838 16.5016C55.9687 15.7911 55.5957 14.9679 55.4543 14.0393C55.3065 13.1177 55.4261 12.1468 55.7498 11.3378C56.3275 9.73374 57.4394 8.4674 58.6708 7.53875C59.9086 6.60306 61.2744 5.96989 62.6536 5.46335C65.4191 4.47138 68.2683 4.00706 71.1048 3.73268C73.9476 3.47942 76.7905 3.42313 79.6186 3.57087ZM69.5563 0.1234C63.5961 0.264105 57.636 0.707324 51.7673 1.60783C48.84 2.07216 45.9338 2.65608 43.1472 3.53549C41.761 3.98574 40.4029 4.49931 39.1644 5.16766C37.94 5.82897 36.8141 6.6732 36.2442 7.6722C36.1105 7.93954 35.9979 8.12949 35.9416 8.46719L35.836 8.94558L35.7797 9.42398C35.7305 10.0571 35.7375 10.6762 35.8642 11.2953C36.0823 12.5335 36.6312 13.7788 37.2504 15.0944C37.8767 16.417 38.5593 17.817 39.137 19.3225C39.7133 20.8211 40.1777 22.411 40.4733 24.0432C41.0362 27.0754 41.0362 30.192 40.6773 33.182L35.6812 32.4714L34.2387 32.2674L34.112 32.401C34.9149 29.8332 35.3857 27.2231 35.3575 24.5919C35.3435 23.2623 35.1957 21.9256 34.9213 20.5678C34.6609 19.21 34.2528 17.824 33.8376 16.3537C33.4365 14.8833 33.0073 13.2722 32.9932 11.5205C32.9721 10.6551 33.1128 9.7687 33.3316 8.94558L33.5139 8.32648L33.7531 7.74256C33.8235 7.55261 33.915 7.33451 34.0205 7.11642C34.1191 6.89833 34.2457 6.70134 34.3653 6.50436C35.4138 4.96364 36.8845 4.11238 38.2989 3.43699C39.7414 2.77568 41.2121 2.31839 42.6899 1.93849C45.6523 1.20683 48.643 0.798782 51.6336 0.510337C57.6085 -0.0313757 63.5961 -0.108762 69.5563 0.1234Z" fill="#007B87"/>
</svg>
