<svg width="166" height="166" viewBox="0 0 166 166" fill="none" xmlns="http://www.w3.org/2000/svg">
<path fill-rule="evenodd" clip-rule="evenodd" d="M124.812 120.919L112.685 132.774L111.598 133.837L111.003 134.419L110.421 133.824L109.167 132.539L104.307 127.787L103.711 127.208L104.292 126.612L106.128 124.734L106.711 124.139L107.304 124.721L111.047 128.378L120.024 119.603L121.815 117.852L122.408 117.271L122.99 117.865L124.459 119.369L124.827 119.743L125.408 120.339L124.812 120.919ZM39.0185 132.774V35.4082H62.7917L65.2478 41.1954H93.5274L95.9825 35.4082H120.024V107.403C118.128 106.784 116.107 106.439 114.006 106.439C112.005 106.439 110.064 106.743 108.246 107.312C100.338 109.762 94.6008 117.123 94.6008 125.845C94.6008 128.289 95.0666 130.621 95.8905 132.774H39.0185ZM79.8506 26.1835C82.4686 26.1835 84.591 28.3048 84.591 30.9239C84.591 30.9394 84.5855 30.9561 84.5855 30.9727C84.5578 33.5675 82.452 35.6621 79.8506 35.6621C77.2492 35.6621 75.1434 33.5675 75.1168 30.9727C75.1168 30.9561 75.1113 30.9394 75.1113 30.9239C75.1113 28.3048 77.2325 26.1835 79.8506 26.1835ZM124.459 109.513V30.9727H101.04L98.1193 20.75H61.5752L58.6545 30.9727H34.583V137.21H98.2823C100.684 140.526 104.103 143.056 108.088 144.327C109.955 144.922 111.945 145.25 114.006 145.25C124.716 145.25 133.411 136.565 133.411 125.845C133.411 118.979 129.836 112.963 124.459 109.513ZM51.3304 60.4398H108.363V56.0043H51.3304V60.4398ZM51.3304 75.8865H108.363V71.451H51.3304V75.8865ZM51.3304 90.8818H108.363V86.4463H51.3304V90.8818ZM51.6265 106.439H85.374V102.004H51.6265V106.439Z" fill="#757575"/>
</svg>
