<svg width="166" height="166" viewBox="0 0 166 166" fill="none" xmlns="http://www.w3.org/2000/svg">
<path fill-rule="evenodd" clip-rule="evenodd" d="M126.271 140.508H39.6716V36.4113H65.0882L67.7093 42.5995H97.9497L100.57 36.4113H126.271V140.508ZM78.2589 31.6208C78.2589 28.8243 80.5231 26.56 83.3221 26.56C86.1186 26.56 88.3947 28.8243 88.3947 31.6208C88.3947 31.6457 88.3829 31.6576 88.3829 31.6694C88.3603 34.4434 86.1067 36.684 83.3221 36.684C80.548 36.684 78.2944 34.4434 78.2589 31.6694V31.6208ZM105.975 31.6694L102.858 20.75H63.7842L60.6664 31.6694H34.9297V145.25H131.013V31.6694H105.975ZM52.8294 104.339H113.799V99.5973H52.8294V104.339ZM52.8294 120.367H113.799V115.625H52.8294V120.367ZM89.5683 66.5698C89.5683 70.8256 86.6165 74.2754 82.9652 74.2754C79.3258 74.2754 76.374 70.8256 76.374 66.5698C76.374 60.915 79.3258 58.8642 82.9652 58.8642C86.6165 58.8642 89.5683 60.915 89.5683 66.5698ZM97.2149 84.6367V88.2879H68.7279V84.6367C68.7279 82.977 69.0468 81.3292 69.7593 79.8225C70.8855 77.4408 73.1379 74.9158 77.619 73.8133C77.6901 73.7896 77.7612 73.7777 77.8442 73.754C79.2668 74.9987 81.045 75.7337 82.9643 75.7337C84.8978 75.7337 86.676 74.9987 88.0867 73.7658L88.3108 73.8002C92.7943 74.9039 95.0573 77.429 96.1835 79.8225C96.8936 81.3292 97.2149 82.977 97.2149 84.6367Z" fill="#757575"/>
</svg>
