<svg width="58" height="56" viewBox="0 0 58 56" fill="none" xmlns="http://www.w3.org/2000/svg">
<path fill-rule="evenodd" clip-rule="evenodd" d="M36.278 20.2211C36.278 13.9412 33.0189 11.667 28.9995 11.667C24.9797 11.667 21.721 13.9412 21.721 20.2211C21.721 24.9449 24.9793 28.7751 28.9995 28.7751C33.0193 28.7751 36.278 24.9449 36.278 20.2211ZM34.8852 28.2523L34.6457 28.2012C33.0803 29.5733 31.1228 30.3916 28.9993 30.3916C26.8715 30.3916 24.91 29.5693 23.3426 28.1919C23.2546 28.2165 23.1707 28.239 23.0943 28.2575C18.1559 29.4832 15.6711 32.2842 14.4259 34.9379C13.6448 36.6031 13.291 38.439 13.291 40.2804V44.3337H44.7077V40.28C44.7077 38.4373 44.3535 36.6003 43.5712 34.9347C42.3244 32.2778 39.8344 29.4747 34.8852 28.2523Z" fill="#007B87"/>
</svg>
