<svg width="109" height="67" viewBox="0 0 109 67" fill="none" xmlns="http://www.w3.org/2000/svg">
<path d="M106.619 50.0374V39.6047C106.619 37.4775 105.545 35.5606 103.896 34.7659L94.9396 30.4182L78.3046 14.7183H63.7929V34.8286L13.0442 6.07741C13.0679 5.86705 13.0836 5.65669 13.0836 5.44628C13.0836 2.44656 10.6137 0 7.56768 0C4.52165 0 2.05963 2.43873 2.05963 5.44628C2.05963 7.90844 3.72466 9.98881 5.99733 10.6589V21.8788H6.02103V23.9358H6.04467C6.42347 23.9358 6.78648 24.0061 7.1258 24.146C8.20687 24.5825 8.91709 25.611 8.91709 26.7639C8.91709 27.5199 8.62511 28.2369 8.0806 28.7742C7.53614 29.312 6.81802 29.616 6.05256 29.616H6.03677C4.45852 29.616 3.1644 28.3538 3.1565 26.7875L0 26.803C0 28.3924 0.639188 29.8884 1.79129 31.0107C2.92766 32.1245 4.43488 32.7325 6.03677 32.7325H6.06836C7.67815 32.7325 9.19327 32.1014 10.3296 30.9716C11.4659 29.8418 12.0815 28.3382 12.0736 26.7483C12.0657 24.6372 10.9372 22.7281 9.14593 21.6684V10.6589C10.1797 10.355 11.0951 9.75507 11.7737 8.95251L30.6337 19.6348L44.4909 40.9758H17.7631V50.0299H15.5536V56.9252H23.4133C23.4054 57.1048 23.3896 57.2759 23.3896 57.455C23.3896 62.7147 27.7219 66.9997 33.0564 66.9997C38.3908 66.9997 42.7231 62.7222 42.7231 57.455C42.7231 57.2759 42.7073 57.1048 42.6994 56.9252H61.449V40.9683H48.2627L36.5837 22.9851L63.8006 38.4047V56.9252H79.4725C79.4649 57.1048 79.4491 57.2759 79.4491 57.455C79.4491 60.0031 80.4508 62.4027 82.2817 64.2028C84.1049 66.0028 86.5349 66.9997 89.1159 66.9997C94.4423 66.9997 98.7821 62.7222 98.7821 57.455C98.7821 57.2759 98.7663 57.1048 98.7587 56.9252H108.946V50.0299H106.642L106.619 50.0374ZM7.57558 7.77599C6.62072 7.77599 5.80793 7.215 5.43707 6.42027C5.43707 6.42027 5.43707 6.41244 5.42917 6.40467C5.37394 6.28 5.3266 6.14755 5.29501 6.0151C5.29501 5.99172 5.27921 5.96834 5.27137 5.94496C5.23977 5.79691 5.22397 5.63331 5.21608 5.47749V5.45411V5.43851C5.21608 5.2749 5.23187 5.11908 5.27137 4.9632C5.27137 4.93987 5.28711 4.92427 5.29501 4.90089C5.3266 4.76061 5.37394 4.62817 5.42917 4.49572V4.48795C5.80003 3.68539 6.62072 3.12439 7.56768 3.12439C8.86975 3.12439 9.92719 4.16847 9.92719 5.45411C9.92719 6.7397 8.86975 7.78377 7.56768 7.78377L7.57558 7.77599ZM39.5587 57.463C39.5587 61.0079 36.6469 63.8912 33.0485 63.8912C29.45 63.8912 26.5382 61.016 26.5382 57.463C26.5382 57.2839 26.554 57.1123 26.5619 56.9332C26.8301 53.6296 29.6315 51.0348 33.0406 51.0348C36.4496 51.0348 39.2509 53.6296 39.5193 56.9332C39.535 57.1048 39.5429 57.2839 39.5429 57.463H39.5587ZM68.5114 28.9693V19.3621H76.8447L87.0165 28.9693H68.5196H68.5114ZM95.6102 57.463C95.6102 61.0079 92.698 63.8912 89.1001 63.8912C85.5016 63.8912 82.5895 61.016 82.5895 57.463C82.5895 57.2839 82.6052 57.1123 82.6134 56.9332C82.6292 56.7386 82.6526 56.5434 82.6924 56.3568C82.6924 56.3412 82.6924 56.3176 82.6924 56.3176C82.724 56.1385 82.7632 55.9594 82.8182 55.7879C82.8182 55.7643 82.8264 55.7412 82.834 55.7176C82.8814 55.5541 82.937 55.3905 83.0002 55.2345C83.016 55.2034 83.0236 55.1723 83.0312 55.1412C83.0944 54.9932 83.1576 54.8452 83.229 54.6972C83.2448 54.658 83.2682 54.6189 83.284 54.5878C83.3548 54.4478 83.4262 54.3154 83.5051 54.1829C83.5286 54.1438 83.5602 54.0971 83.5841 54.058C83.6626 53.9336 83.7416 53.8167 83.8287 53.6998C83.8603 53.6532 83.8995 53.606 83.9311 53.5593C84.0177 53.4505 84.1049 53.3411 84.1915 53.2397C84.2389 53.1931 84.2781 53.1384 84.3255 53.0917C84.4127 52.9984 84.5069 52.9051 84.6017 52.8113C84.6572 52.7566 84.7123 52.7099 84.7678 52.6633C84.8621 52.5855 84.9569 52.4997 85.0516 52.422C85.1148 52.3753 85.1856 52.3206 85.2488 52.274C85.3436 52.2037 85.4384 52.1415 85.5332 52.0713C85.6122 52.0247 85.6906 51.9775 85.7696 51.9308C85.8644 51.8767 85.9592 51.822 86.0539 51.7673C86.1406 51.7206 86.2353 51.6815 86.322 51.6429C86.4167 51.5957 86.5115 51.5571 86.6063 51.5179C86.7087 51.4788 86.8117 51.4402 86.9141 51.4091C87.0089 51.378 87.0955 51.3463 87.1903 51.3152C87.3008 51.2841 87.419 51.253 87.5372 51.23C87.6244 51.2064 87.711 51.1828 87.7976 51.1672C87.9322 51.1442 88.0738 51.1206 88.2084 51.105C88.2792 51.097 88.35 51.0814 88.4213 51.0739C88.6343 51.0503 88.855 51.0428 89.0685 51.0428C89.2815 51.0428 89.5021 51.0503 89.7156 51.0739C89.7864 51.0739 89.8573 51.097 89.9286 51.105C90.0702 51.1206 90.2048 51.1442 90.3388 51.1672C90.4254 51.1828 90.5126 51.2064 90.5992 51.23C90.7174 51.2611 90.8361 51.2841 90.9462 51.3152C91.041 51.3463 91.1281 51.378 91.2224 51.4091C91.3253 51.4477 91.4277 51.4788 91.5301 51.5179C91.6249 51.5571 91.7197 51.6037 91.8145 51.6429C91.9011 51.6815 91.9959 51.7281 92.0825 51.7673C92.1773 51.8139 92.2721 51.8767 92.3668 51.9308C92.4458 51.9775 92.5248 52.0247 92.6038 52.0713C92.698 52.1335 92.7928 52.2038 92.8876 52.266C92.9584 52.3126 93.0216 52.3593 93.0848 52.4139C93.1796 52.4917 93.2744 52.57 93.3691 52.6477C93.4242 52.6944 93.4797 52.7491 93.5347 52.7957C93.6295 52.8815 93.7243 52.9748 93.8109 53.0762C93.8583 53.1228 93.8975 53.17 93.9449 53.2242C94.0397 53.3255 94.1263 53.4349 94.2053 53.5438C94.2451 53.5904 94.2767 53.6371 94.3083 53.6843C94.3949 53.8011 94.4739 53.9181 94.5528 54.0425C94.5763 54.0816 94.6079 54.1282 94.6318 54.1674C94.7103 54.2998 94.7893 54.4323 94.8524 54.5722C94.8682 54.6114 94.8922 54.65 94.908 54.6816C94.9788 54.8296 95.042 54.9776 95.1052 55.1256C95.121 55.1567 95.1286 55.1878 95.1368 55.2189C95.2 55.3825 95.255 55.5385 95.3024 55.7021C95.3024 55.7256 95.3182 55.7487 95.3182 55.7723C95.3656 55.9439 95.4048 56.123 95.4446 56.3021C95.4446 56.3176 95.4446 56.3412 95.4446 56.3412C95.4762 56.5278 95.5078 56.723 95.5236 56.9177C95.5394 57.0893 95.547 57.2684 95.547 57.4475L95.6102 57.463Z" fill="#007B87"/>
</svg>
